HIERARCHY
ROOT Hips
{
	OFFSET 0.00000 0.00000 0.00000
	CHANNELS 6 Xposition Yposition Zposition Zrotation Yrotation Xrotation 
	JOINT LHipJoint
	{
		OFFSET 0 0 0
		CHANNELS 3 Zrotation Yrotation Xrotation
		JOINT LeftUpLeg
		{
			OFFSET 1.34019 -1.87553 0.90315
			CHANNELS 3 Zrotation Yrotation Xrotation
			JOINT LeftLeg
			{
				OFFSET 2.55316 -7.01474 0.00000
				CHANNELS 3 Zrotation Yrotation Xrotation
				JOINT LeftFoot
				{
					OFFSET 2.64657 -7.27139 0.00000
					CHANNELS 3 Zrotation Yrotation Xrotation
					JOINT LeftToeBase
					{
						OFFSET 0.24207 -0.66507 2.14489
						CHANNELS 3 Zrotation Yrotation Xrotation
						End Site
						{
							OFFSET 0.00000 -0.00000 1.12451
						}
					}
				}
			}
		}
	}
	JOINT RHipJoint
	{
		OFFSET 0 0 0
		CHANNELS 3 Zrotation Yrotation Xrotation
		JOINT RightUpLeg
		{
			OFFSET -1.28320 -1.87553 0.90315
			CHANNELS 3 Zrotation Yrotation Xrotation
			JOINT RightLeg
			{
				OFFSET -2.60484 -7.15674 0.00000
				CHANNELS 3 Zrotation Yrotation Xrotation
				JOINT RightFoot
				{
					OFFSET -2.60296 -7.15159 0.00000
					CHANNELS 3 Zrotation Yrotation Xrotation
					JOINT RightToeBase
					{
						OFFSET -0.31082 -0.85398 2.28998
						CHANNELS 3 Zrotation Yrotation Xrotation
						End Site
						{
							OFFSET -0.00000 -0.00000 1.21611
						}
					}
				}
			}
		}
	}
	JOINT LowerBack
	{
		OFFSET 0 0 0
		CHANNELS 3 Zrotation Yrotation Xrotation
		JOINT Spine
		{
			OFFSET -0.00160 2.05581 -0.15156
			CHANNELS 3 Zrotation Yrotation Xrotation
			JOINT Spine1
			{
				OFFSET 0.04594 2.06326 -0.01617
				CHANNELS 3 Zrotation Yrotation Xrotation
				JOINT Neck
				{
					OFFSET 0 0 0
					CHANNELS 3 Zrotation Yrotation Xrotation
					JOINT Neck1
					{
						OFFSET 0.03753 1.73883 0.26751
						CHANNELS 3 Zrotation Yrotation Xrotation
						JOINT Head
						{
							OFFSET -0.09795 1.76129 -0.31794
							CHANNELS 3 Zrotation Yrotation Xrotation
							End Site
							{
								OFFSET -0.03611 1.79987 -0.13846
							}
						}
					}
				}
				JOINT LeftShoulder
				{
					OFFSET 0 0 0
					CHANNELS 3 Zrotation Yrotation Xrotation
					JOINT LeftArm
					{
						OFFSET 3.30667 1.29205 -0.22445
						CHANNELS 3 Zrotation Yrotation Xrotation
						JOINT LeftForeArm
						{
							OFFSET 4.92785 -0.00000 -0.00000
							CHANNELS 3 Zrotation Yrotation Xrotation
							JOINT LeftHand
							{
								OFFSET 3.44052 -0.00000 0.00000
								CHANNELS 3 Zrotation Yrotation Xrotation
								JOINT LeftFingerBase
								{
									OFFSET 0 0 0
									CHANNELS 3 Zrotation Yrotation Xrotation
									JOINT LeftHandIndex1
									{
										OFFSET 0.65433 -0.00000 0.00000
										CHANNELS 3 Zrotation Yrotation Xrotation
										End Site
										{
											OFFSET 0.52753 -0.00000 0.00000
										}
									}
								}
								JOINT LThumb
								{
									OFFSET 0 0 0
									CHANNELS 3 Zrotation Yrotation Xrotation
									End Site
									{
										OFFSET 0.53559 -0.00000 0.53559
									}
								}
							}
						}
					}
				}
				JOINT RightShoulder
				{
					OFFSET 0 0 0
					CHANNELS 3 Zrotation Yrotation Xrotation
					JOINT RightArm
					{
						OFFSET -3.20032 1.49783 -0.27688
						CHANNELS 3 Zrotation Yrotation Xrotation
						JOINT RightForeArm
						{
							OFFSET -5.09181 -0.00000 -0.00000
							CHANNELS 3 Zrotation Yrotation Xrotation
							JOINT RightHand
							{
								OFFSET -3.49865 -0.00000 -0.00000
								CHANNELS 3 Zrotation Yrotation Xrotation
								JOINT RightFingerBase
								{
									OFFSET 0 0 0
									CHANNELS 3 Zrotation Yrotation Xrotation
									JOINT RightHandIndex1
									{
										OFFSET -0.66641 -0.00000 0.00000
										CHANNELS 3 Zrotation Yrotation Xrotation
										End Site
										{
											OFFSET -0.53728 -0.00000 0.00000
										}
									}
								}
								JOINT RThumb
								{
									OFFSET 0 0 0
									CHANNELS 3 Zrotation Yrotation Xrotation
									End Site
									{
										OFFSET -0.54548 -0.00000 0.54548
									}
								}
							}
						}
					}
				}
			}
		}
	}
}
MOTION
Frames: 11
Frame Time: .0083333
0.5597 17.9787 -25.9409 0 0 0 0 0 0 -21 0 0 0 0 0 0 0 0 0 0 0 0 0 0 21 0 0 0 0 0 0 0 0 0 0 0 0 0 0 0 0 0 0 0 0 0 0 -16 0 0 21 0 0 11 0 0 0 -8 0 0 0 0 0 0 0 0 0 0 0 0 0 0 0 0 0 0 0 0 8 0 0 0 0 0 0 0 0 0 0 0 0 0 0 0 0 0
0.5597 17.9787 -25.9409 -0.5089 40.3212 1.7152 0.0000 0.0000 0.0000 -15.1015 -15.7202 -8.4739 1.8471 8.5402 24.3671 0.0848 -11.1854 -9.0513 0.2171 -2.9993 -8.2769 0.0000 0.0000 0.0000 20.0009 -14.0542 -5.5320 -1.6898 -8.1877 23.2856 2.8441 -33.3094 -32.5691 -0.0253 -1.0270 2.8231 1.0853 6.3382 3.7985 2.9001 8.5793 0.0711 1.8675 4.2919 -2.3272 7.8200 22.0412 2.7645 -14.3740 30.2193 -0.0484 -4.0047 15.1656 2.8910 0.0000 0.0000 0.0000 -90.2328 -2.3003 23.6769 13.0099 -21.3017 -2.4569 -0.0000 0.0000 -0.1830 10.7069 2.3105 0.4367 -7.1250 0.0000 -0.0000 -12.7411 32.1527 4.0950 0.0000 0.0000 0.0000 79.3853 -9.2671 10.5683 -17.1341 27.0342 -4.1481 0.0000 -0.0000 -13.1059 -21.7473 2.5728 -1.0258 7.1250 -0.0000 -0.0000 3.7154 -27.2052 1.6089
0.5650 17.9789 -25.9452 -0.0078 40.4097 2.1247 0.0000 0.0000 0.0000 -15.5554 -15.8576 -8.4846 1.8383 8.5208 24.3074 0.0839 -11.1280 -9.0052 0.2113 -2.9596 -8.1664 0.0000 0.0000 0.0000 19.5223 -14.3613 -5.7563 -1.6998 -8.2107 23.3559 2.8155 -33.1304 -32.3361 -0.0236 -0.9926 2.7285 0.8951 6.3074 3.7212 2.7096 8.5215 0.0578 1.7886 4.2632 -2.2944 8.2855 22.0119 3.8440 -14.9852 30.1261 -1.3394 -4.4059 15.2024 2.4906 -0.0000 0.0000 0.0000 -90.1463 -2.3621 23.6303 12.9472 -21.2098 -2.4342 -0.0000 -0.0000 0.0025 10.6639 2.2937 0.4318 -7.1250 0.0000 -0.0000 -12.7725 32.1347 4.1112 -0.0000 0.0000 0.0000 79.4755 -9.2042 10.2206 -17.1272 27.0252 -4.1450 0.0000 -0.0000 -13.4992 -20.0252 0.9632 -0.3510 7.1250 -0.0000 -0.0000 5.1016 -28.9387 2.0033
0.5581 17.9794 -25.9374 -0.5842 40.2575 1.6741 0.0000 0.0000 0.0000 -15.0362 -15.7682 -8.4060 1.8381 8.5204 24.3061 0.0934 -11.0328 -9.0780 0.2156 -2.9890 -8.2480 0.0000 0.0000 0.0000 20.0733 -13.9566 -5.5477 -1.6976 -8.2055 23.3402 2.8360 -33.3204 -32.6511 -0.0248 -1.0171 2.7959 1.1956 6.3426 3.7752 2.8708 8.5881 0.0669 1.7812 4.2948 -2.2982 8.7924 21.9953 4.9466 -15.6510 30.0747 -2.5593 -4.8180 15.2593 2.1293 -0.0000 -0.0000 0.0000 -90.1778 -2.3836 23.5267 12.8920 -21.1288 -2.4142 -0.0000 -0.0000 0.1057 10.8103 2.1964 0.4193 -7.1250 0.0000 -0.0000 -12.6426 32.0425 4.0963 -0.0000 -0.0000 0.0000 79.4536 -9.2292 10.1147 -17.0028 26.8614 -4.0886 0.0000 -0.0000 -12.6852 -22.5844 3.1707 -1.3179 7.1250 -0.0000 -0.0000 3.0657 -26.5439 1.3744
0.5600 17.9800 -25.9387 -0.3282 40.2279 1.8936 0.0000 0.0000 0.0000 -15.2584 -15.7868 -8.4242 1.8341 8.5116 24.2792 0.0956 -10.9817 -9.0776 0.2163 -2.9941 -8.2623 0.0000 0.0000 0.0000 19.8317 -14.0654 -5.6463 -1.7003 -8.2117 23.3591 2.8134 -33.1956 -32.5072 -0.0242 -1.0044 2.7610 1.0936 6.3465 3.7480 2.7656 8.5853 0.0397 1.7308 4.2932 -2.3095 9.1493 21.9863 6.0355 -16.2038 30.0125 -3.8667 -5.2020 15.3120 1.7050 -0.0000 0.0000 0.0000 -90.1107 -2.3467 23.6787 12.9095 -21.1545 -2.4205 -0.0000 0.0000 -0.0540 10.8590 2.3452 0.4497 -7.1250 0.0000 -0.0000 -12.6259 32.1918 4.0441 -0.0000 0.0000 0.0000 79.5358 -9.0936 9.6694 -16.9175 26.7489 -4.0501 0.0000 -0.0000 -12.9705 -21.5194 2.4179 -0.9530 7.1250 -0.0000 -0.0000 3.8939 -27.3752 1.6709
0.5592 17.9803 -25.9370 -0.3189 40.1741 1.9100 0.0000 0.0000 0.0000 -15.2603 -15.7832 -8.4234 1.8352 8.5141 24.2869 0.1001 -10.9296 -9.1079 0.2168 -2.9973 -8.2712 0.0000 0.0000 0.0000 19.8274 -14.0335 -5.6296 -1.6953 -8.2002 23.3239 2.8153 -33.1906 -32.4818 -0.0241 -1.0024 2.7555 1.1135 6.3587 3.7437 2.7364 8.6016 0.0279 1.6894 4.3008 -2.3123 9.4186 21.9650 6.7050 -16.5513 29.9616 -4.6543 -5.4452 15.3366 1.4566 -0.0000 -0.0000 0.0000 -90.0736 -2.3536 23.6960 12.8802 -21.1114 -2.4100 -0.0000 0.0000 -0.0346 10.8892 2.3553 0.4530 -7.1250 0.0000 -0.0000 -12.6035 32.2027 4.0332 -0.0000 -0.0000 0.0000 79.5887 -9.0271 9.3089 -16.8702 26.6863 -4.0289 0.0000 -0.0000 -13.1093 -21.4642 2.4816 -0.9753 7.1250 -0.0000 -0.0000 3.9346 -27.3077 1.6947
0.5584 17.9806 -25.9351 -0.3048 40.1150 1.9288 0.0000 0.0000 0.0000 -15.2660 -15.7608 -8.4013 1.8289 8.5001 24.2437 0.1022 -10.8809 -9.1086 0.2173 -3.0010 -8.2815 0.0000 0.0000 0.0000 19.8185 -13.9832 -5.6448 -1.7009 -8.2131 23.3631 2.8060 -33.1697 -32.4959 -0.0240 -1.0008 2.7510 1.1265 6.3758 3.7391 2.7053 8.6241 0.0157 1.6495 4.3115 -2.3161 9.5710 21.9479 7.0970 -16.7230 29.9223 -5.1366 -5.5830 15.3456 1.2980 -0.0000 0.0000 0.0000 -90.0326 -2.3574 23.7226 12.8503 -21.0674 -2.3992 -0.0000 0.0000 -0.0130 10.9040 2.3544 0.4534 -7.1250 0.0000 -0.0000 -12.5916 32.2024 4.0294 -0.0000 0.0000 0.0000 79.6445 -8.9653 8.9218 -16.8446 26.6525 -4.0174 0.0000 -0.0000 -13.3644 -21.3754 2.5093 -0.9817 7.1250 -0.0000 -0.0000 4.0021 -27.2795 1.7266
0.5581 17.9809 -25.9336 -0.2427 40.0600 1.9846 0.0000 0.0000 0.0000 -15.3141 -15.7439 -8.3922 1.8243 8.4902 24.2131 0.1044 -10.8366 -9.1124 0.2179 -3.0051 -8.2931 0.0000 0.0000 0.0000 19.7646 -13.9617 -5.6637 -1.7033 -8.2186 23.3800 2.7988 -33.1400 -32.4744 -0.0239 -0.9976 2.7423 1.1098 6.3908 3.7248 2.6636 8.6418 0.0063 1.6164 4.3200 -2.3143 9.6378 21.9376 7.2712 -16.7673 29.8963 -5.3816 -5.6401 15.3447 1.2120 -0.0000 -0.0000 0.0000 -89.9937 -2.3658 23.7343 12.8153 -21.0160 -2.3866 -0.0000 -0.0000 0.0395 10.8960 2.3438 0.4510 -7.1250 0.0000 -0.0000 -12.5964 32.1916 4.0343 -0.0000 -0.0000 0.0000 79.6986 -8.9129 8.5339 -16.8426 26.6498 -4.0165 0.0000 -0.0000 -13.7004 -21.1002 2.3631 -0.9115 7.1250 -0.0000 -0.0000 4.2172 -27.4402 1.8039
0.5577 17.9811 -25.9318 -0.1905 39.9989 2.0309 0.0000 0.0000 0.0000 -15.3533 -15.7189 -8.3800 1.8192 8.4788 24.1782 0.1062 -10.7941 -9.1133 0.2186 -3.0096 -8.3056 0.0000 0.0000 0.0000 19.7196 -13.9304 -5.6800 -1.7065 -8.2259 23.4023 2.7907 -33.1131 -32.4661 -0.0238 -0.9967 2.7397 1.0971 6.4055 3.7104 2.6253 8.6593 -0.0002 1.5848 4.3285 -2.3093 9.6431 21.9335 7.2704 -16.7121 29.8823 -5.4338 -5.6329 15.3365 1.1866 -0.0000 -0.0000 0.0000 -89.9541 -2.3748 23.7321 12.7773 -20.9600 -2.3730 -0.0000 -0.0000 0.1162 10.8682 2.3131 0.4440 -7.1250 0.0000 -0.0000 -12.6139 32.1602 4.0500 -0.0000 -0.0000 0.0000 79.7531 -8.8723 8.1756 -16.8397 26.6460 -4.0152 0.0000 -0.0000 -13.9448 -20.8761 2.2238 -0.8479 7.1250 -0.0000 -0.0000 4.3936 -27.5919 1.8640
0.5577 17.9813 -25.9303 -0.1206 39.9371 2.0911 0.0000 0.0000 0.0000 -15.4102 -15.6970 -8.3688 1.8137 8.4668 24.1411 0.1083 -10.7463 -9.1139 0.2195 -3.0161 -8.3235 0.0000 0.0000 0.0000 19.6548 -13.9149 -5.7070 -1.7102 -8.2345 23.4286 2.7806 -33.0739 -32.4421 -0.0237 -0.9930 2.7295 1.0765 6.4179 3.6941 2.5826 8.6732 -0.0065 1.5534 4.3352 -2.3034 9.6487 21.9321 7.2698 -16.6613 29.8731 -5.4791 -5.6257 15.3308 1.1646 -0.0000 -0.0000 0.0000 -89.9109 -2.3744 23.7400 12.7445 -20.9117 -2.3613 -0.0000 -0.0000 0.1822 10.8363 2.2893 0.4381 -7.1250 0.0000 -0.0000 -12.6357 32.1356 4.0650 -0.0000 -0.0000 0.0000 79.8070 -8.8405 7.8562 -16.8326 26.6366 -4.0120 0.0000 -0.0000 -14.1336 -20.6721 2.0417 -0.7701 7.1250 -0.0000 -0.0000 4.5565 -27.7885 1.9123
0.5578 17.9816 -25.9288 -0.0647 39.8672 2.1397 0.0000 0.0000 0.0000 -15.4554 -15.6737 -8.3537 1.8089 8.4561 24.1081 0.1110 -10.6918 -9.1200 0.2204 -3.0221 -8.3402 0.0000 0.0000 0.0000 19.6012 -13.8940 -5.7283 -1.7136 -8.2422 23.4522 2.7676 -33.0297 -32.4261 -0.0236 -0.9913 2.7248 1.0797 6.4566 3.6903 2.5168 8.7232 -0.0272 1.4814 4.3592 -2.3130 9.7421 21.9031 7.2903 -16.6237 29.8357 -5.5205 -5.6331 15.3103 1.1515 -0.0000 0.0000 0.0000 -89.8115 -2.3541 23.8657 12.7183 -20.8731 -2.3520 -0.0000 -0.0000 0.2038 10.8023 2.2856 0.4360 -7.1250 0.0000 -0.0000 -12.6620 32.1309 4.0753 -0.0000 0.0000 0.0000 79.9050 -8.8195 7.5092 -16.7993 26.5925 -3.9971 0.0000 -0.0000 -14.2433 -20.5680 1.9260 -0.7225 7.1250 -0.0000 -0.0000 4.6408 -27.9129 1.9343
